<svg width="912" height="674" viewBox="0 0 912 674" fill="none" xmlns="http://www.w3.org/2000/svg">
<path d="M733.127 312.828C1070.98 512.489 550.984 704.489 262.984 668.989C-173.646 615.168 343.484 500.989 76.9845 440.545C-50.6739 407.909 -68.9333 29.5545 601.033 0C862.533 44.5 605.079 237.156 733.127 312.828Z" fill="#00FD66" fill-opacity="0.56"/>
<path d="M618.272 564.733H157.861C150.439 564.733 144.316 558.116 144.316 549.871V218.93C144.316 214.552 147.563 210.99 151.552 210.99H625.508C628.941 210.99 631.724 214.043 631.724 217.81V549.769C631.724 558.116 625.694 564.733 618.272 564.733Z" fill="#455A64"/>
<path d="M639.331 569.517H136.709C129.659 569.517 124 563.308 124 555.571V538.571H652.04V555.571C652.04 563.206 646.381 569.517 639.331 569.517Z" fill="#455A64"/>
<path d="M617.345 225.139H157.49V523.811H617.345V225.139Z" fill="#E0E0E0"/>
<path d="M340.059 538.571L346.552 549.972H438.765L444.887 538.571H340.059Z" fill="#263238"/>
<path d="M604.821 242.445H171.126V523.811H604.821V242.445Z" fill="#263238"/>
<path d="M204.338 515.463C204.152 515.463 203.967 455.505 203.967 381.601C203.967 307.696 204.152 247.738 204.338 247.738C204.523 247.738 204.709 307.696 204.709 381.601C204.802 455.607 204.616 515.463 204.338 515.463Z" fill="#E0E0E0"/>
<path d="M195.618 272.067C195.618 272.271 192.463 272.475 188.567 272.475C184.671 272.475 181.517 272.271 181.517 272.067C181.517 271.864 184.671 271.66 188.567 271.66C192.463 271.66 195.618 271.864 195.618 272.067Z" fill="#E0E0E0"/>
<path d="M196.174 256.9C196.174 257.104 193.02 257.307 189.124 257.307C185.227 257.307 182.073 257.104 182.073 256.9C182.073 256.696 185.227 256.493 189.124 256.493C193.02 256.493 196.174 256.696 196.174 256.9Z" fill="#E0E0E0"/>
<path d="M195.618 288.457C195.618 288.66 192.463 288.864 188.567 288.864C184.671 288.864 181.517 288.66 181.517 288.457C181.517 288.253 184.671 288.05 188.567 288.05C192.463 288.05 195.618 288.253 195.618 288.457Z" fill="#E0E0E0"/>
<path d="M195.618 304.846C195.618 305.05 192.463 305.253 188.567 305.253C184.671 305.253 181.517 305.05 181.517 304.846C181.517 304.642 184.671 304.439 188.567 304.439C192.463 304.439 195.618 304.642 195.618 304.846Z" fill="#E0E0E0"/>
<path d="M195.618 321.235C195.618 321.439 192.463 321.643 188.567 321.643C184.671 321.643 181.517 321.439 181.517 321.235C181.517 321.032 184.671 320.828 188.567 320.828C192.463 320.726 195.618 320.93 195.618 321.235Z" fill="#E0E0E0"/>
<path d="M195.618 337.625C195.618 337.828 192.463 338.032 188.567 338.032C184.671 338.032 181.517 337.828 181.517 337.625C181.517 337.421 184.671 337.217 188.567 337.217C192.463 337.116 195.618 337.319 195.618 337.625Z" fill="#E0E0E0"/>
<path d="M195.618 353.912C195.618 354.116 192.463 354.319 188.567 354.319C184.671 354.319 181.517 354.116 181.517 353.912C181.517 353.709 184.671 353.505 188.567 353.505C192.463 353.505 195.618 353.709 195.618 353.912Z" fill="#E0E0E0"/>
<path d="M195.618 370.301C195.618 370.505 192.463 370.709 188.567 370.709C184.671 370.709 181.517 370.505 181.517 370.301C181.517 370.098 184.671 369.894 188.567 369.894C192.463 369.894 195.618 370.098 195.618 370.301Z" fill="#E0E0E0"/>
<path d="M195.618 386.691C195.618 386.894 192.463 387.098 188.567 387.098C184.671 387.098 181.517 386.894 181.517 386.691C181.517 386.487 184.671 386.283 188.567 386.283C192.463 386.283 195.618 386.487 195.618 386.691Z" fill="#E0E0E0"/>
<path d="M195.618 403.08C195.618 403.284 192.463 403.487 188.567 403.487C184.671 403.487 181.517 403.284 181.517 403.08C181.517 402.876 184.671 402.673 188.567 402.673C192.463 402.673 195.618 402.876 195.618 403.08Z" fill="#E0E0E0"/>
<path d="M195.618 419.469C195.618 419.673 192.463 419.876 188.567 419.876C184.671 419.876 181.517 419.673 181.517 419.469C181.517 419.266 184.671 419.062 188.567 419.062C192.463 418.96 195.618 419.164 195.618 419.469Z" fill="#E0E0E0"/>
<path d="M195.618 435.858C195.618 436.062 192.463 436.266 188.567 436.266C184.671 436.266 181.517 436.062 181.517 435.858C181.517 435.655 184.671 435.451 188.567 435.451C192.463 435.349 195.618 435.553 195.618 435.858Z" fill="#E0E0E0"/>
<path d="M195.618 452.146C195.618 452.349 192.463 452.553 188.567 452.553C184.671 452.553 181.517 452.349 181.517 452.146C181.517 451.942 184.671 451.739 188.567 451.739C192.463 451.739 195.618 451.942 195.618 452.146Z" fill="#E0E0E0"/>
<path d="M195.618 468.535C195.618 468.739 192.463 468.942 188.567 468.942C184.671 468.942 181.517 468.739 181.517 468.535C181.517 468.332 184.671 468.128 188.567 468.128C192.463 468.128 195.618 468.332 195.618 468.535Z" fill="#E0E0E0"/>
<path d="M195.618 484.924C195.618 485.128 192.463 485.332 188.567 485.332C184.671 485.332 181.517 485.128 181.517 484.924C181.517 484.721 184.671 484.517 188.567 484.517C192.463 484.517 195.618 484.721 195.618 484.924Z" fill="#E0E0E0"/>
<path d="M195.618 501.314C195.618 501.517 192.463 501.721 188.567 501.721C184.671 501.721 181.517 501.517 181.517 501.314C181.517 501.11 184.671 500.907 188.567 500.907C192.463 500.805 195.618 501.008 195.618 501.314Z" fill="#E0E0E0"/>
<path d="M252.114 271.151C252.114 271.355 243.95 271.559 233.838 271.559C223.727 271.559 215.563 271.355 215.563 271.151C215.563 270.948 223.727 270.744 233.838 270.744C243.95 270.642 252.114 270.846 252.114 271.151Z" fill="#FF725E"/>
<path d="M252.114 501.314C252.114 501.517 243.95 501.721 233.838 501.721C223.727 501.721 215.563 501.517 215.563 501.314C215.563 501.11 223.727 500.907 233.838 500.907C243.95 500.805 252.114 501.008 252.114 501.314Z" fill="#FF725E"/>
<path d="M303.044 304.846C303.044 305.05 287.737 305.253 268.812 305.253C249.887 305.253 234.58 305.05 234.58 304.846C234.58 304.642 249.887 304.439 268.812 304.439C287.737 304.439 303.044 304.642 303.044 304.846Z" fill="#FF725E"/>
<path d="M382.176 304.846C382.176 305.05 366.869 305.253 347.944 305.253C329.019 305.253 313.712 305.05 313.712 304.846C313.712 304.642 329.019 304.439 347.944 304.439C366.776 304.439 382.176 304.642 382.176 304.846Z" fill="#E0E0E0"/>
<path d="M351.933 321.235C351.933 321.439 329.39 321.643 301.56 321.643C273.729 321.643 251.186 321.439 251.186 321.235C251.186 321.032 273.729 320.828 301.56 320.828C329.297 320.726 351.933 320.93 351.933 321.235Z" fill="#E0E0E0"/>
<path d="M351.933 337.625C351.933 337.828 329.39 338.032 301.56 338.032C273.729 338.032 251.186 337.828 251.186 337.625C251.186 337.421 273.729 337.217 301.56 337.217C329.297 337.116 351.933 337.319 351.933 337.625Z" fill="#E0E0E0"/>
<path d="M421.324 386.691C421.324 386.894 398.781 387.098 370.951 387.098C343.12 387.098 320.577 386.894 320.577 386.691C320.577 386.487 343.12 386.283 370.951 386.283C398.688 386.283 421.324 386.487 421.324 386.691Z" fill="#E0E0E0"/>
<path d="M391.36 353.912C391.36 354.116 368.817 354.319 340.986 354.319C313.156 354.319 290.613 354.116 290.613 353.912C290.613 353.709 313.156 353.505 340.986 353.505C368.817 353.505 391.36 353.709 391.36 353.912Z" fill="#E0E0E0"/>
<path d="M514.557 353.912C514.557 354.116 492.014 354.319 464.183 354.319C436.353 354.319 413.81 354.116 413.81 353.912C413.81 353.709 436.353 353.505 464.183 353.505C492.014 353.505 514.557 353.709 514.557 353.912Z" fill="#E0E0E0"/>
<path d="M471.698 321.235C471.698 321.439 449.155 321.643 421.324 321.643C393.494 321.643 370.951 321.439 370.951 321.235C370.951 321.032 393.494 320.828 421.324 320.828C449.155 320.726 471.698 320.93 471.698 321.235Z" fill="#FAFAFA"/>
<path d="M541.367 386.691C541.367 386.894 518.824 387.098 490.994 387.098C463.163 387.098 440.62 386.894 440.62 386.691C440.62 386.487 463.163 386.283 490.994 386.283C518.824 386.283 541.367 386.487 541.367 386.691Z" fill="#FAFAFA"/>
<path d="M527.452 337.625C527.452 337.828 492.385 338.032 449.155 338.032C405.925 338.032 370.858 337.828 370.858 337.625C370.858 337.421 405.925 337.217 449.155 337.217C492.385 337.116 527.452 337.319 527.452 337.625Z" fill="#455A64"/>
<path d="M252.114 288.457C252.114 288.66 243.95 288.864 233.838 288.864C223.727 288.864 215.563 288.66 215.563 288.457C215.563 288.253 223.727 288.05 233.838 288.05C243.95 288.05 252.114 288.253 252.114 288.457Z" fill="#FAFAFA"/>
<path d="M252.114 484.924C252.114 485.128 243.95 485.332 233.838 485.332C223.727 485.332 215.563 485.128 215.563 484.924C215.563 484.721 223.727 484.517 233.838 484.517C243.95 484.517 252.114 484.721 252.114 484.924Z" fill="#FAFAFA"/>
<path d="M270.204 353.912C270.204 354.116 262.04 354.319 251.928 354.319C241.816 354.319 233.653 354.116 233.653 353.912C233.653 353.709 241.816 353.505 251.928 353.505C262.04 353.505 270.204 353.709 270.204 353.912Z" fill="#FAFAFA"/>
<path d="M563.26 353.912C563.26 354.116 555.097 354.319 544.985 354.319C534.873 354.319 526.71 354.116 526.71 353.912C526.71 353.709 534.873 353.505 544.985 353.505C555.097 353.505 563.26 353.709 563.26 353.912Z" fill="#FF725E"/>
<path d="M303.044 419.367C303.044 419.571 287.737 419.774 268.812 419.774C249.887 419.774 234.58 419.571 234.58 419.367C234.58 419.164 249.887 418.96 268.812 418.96C287.737 418.858 303.044 419.062 303.044 419.367Z" fill="#FF725E"/>
<path d="M382.176 419.367C382.176 419.571 366.869 419.774 347.944 419.774C329.019 419.774 313.712 419.571 313.712 419.367C313.712 419.164 329.019 418.96 347.944 418.96C366.776 418.858 382.176 419.062 382.176 419.367Z" fill="#E0E0E0"/>
<path d="M351.933 435.757C351.933 435.96 329.39 436.164 301.56 436.164C273.729 436.164 251.186 435.96 251.186 435.757C251.186 435.553 273.729 435.349 301.56 435.349C329.297 435.248 351.933 435.451 351.933 435.757Z" fill="#E0E0E0"/>
<path d="M351.933 452.044C351.933 452.248 329.39 452.451 301.56 452.451C273.729 452.451 251.186 452.248 251.186 452.044C251.186 451.841 273.729 451.637 301.56 451.637C329.297 451.637 351.933 451.841 351.933 452.044Z" fill="#E0E0E0"/>
<path d="M391.36 468.433C391.36 468.637 368.817 468.841 340.986 468.841C313.156 468.841 290.613 468.637 290.613 468.433C290.613 468.23 313.156 468.026 340.986 468.026C368.817 468.026 391.36 468.23 391.36 468.433Z" fill="#E0E0E0"/>
<path d="M514.557 468.433C514.557 468.637 492.014 468.841 464.183 468.841C436.353 468.841 413.81 468.637 413.81 468.433C413.81 468.23 436.353 468.026 464.183 468.026C492.014 468.026 514.557 468.23 514.557 468.433Z" fill="#E0E0E0"/>
<path d="M471.698 435.757C471.698 435.96 449.155 436.164 421.324 436.164C393.494 436.164 370.951 435.96 370.951 435.757C370.951 435.553 393.494 435.349 421.324 435.349C449.155 435.248 471.698 435.451 471.698 435.757Z" fill="#FAFAFA"/>
<path d="M527.452 452.044C527.452 452.248 492.385 452.451 449.155 452.451C405.925 452.451 370.858 452.248 370.858 452.044C370.858 451.841 405.925 451.637 449.155 451.637C492.385 451.637 527.452 451.841 527.452 452.044Z" fill="#455A64"/>
<path d="M270.204 468.433C270.204 468.637 262.04 468.841 251.928 468.841C241.816 468.841 233.653 468.637 233.653 468.433C233.653 468.23 241.816 468.026 251.928 468.026C262.04 468.026 270.204 468.23 270.204 468.433Z" fill="#FAFAFA"/>
<path d="M563.26 468.433C563.26 468.637 555.097 468.841 544.985 468.841C534.873 468.841 526.71 468.637 526.71 468.433C526.71 468.23 534.873 468.026 544.985 468.026C555.097 468.026 563.26 468.23 563.26 468.433Z" fill="#FF725E"/>
<path d="M72.9 464.189C59.1 450.089 37.5 444.189 18.4 449.289C35 460.389 53.6 466.289 73.5 466.489" fill="#F35555"/>
<path d="M54.5 398.79C56.8 382.79 50.5 364.69 38.5 352.99C38.1 368.89 44.8 386.79 54.5 398.79Z" fill="#F35555"/>
<path d="M64.1 429.089C55.5 412.689 41.5 399.29 24.8 391.49C29.8 409.99 45.6 425.09 64.3 429.29" fill="#F35555"/>
<path d="M66.1 434.89C56.4 435.19 46.6 434.79 37.2 432.39C27.8 429.89 18.9 425.19 12.6 417.69C31.5 417.69 50.3 423.49 65.9 433.99" fill="#F35555"/>
<path d="M61.2 415.69C66.1 397.29 74.2 384.49 88.7 374.19C89.8 383.19 87.6 392.49 82.6 399.99C77.6 407.49 69.8 413.19 61.2 415.69Z" fill="#F35555"/>
<path d="M97.7 447.49C98 436.79 91 426.29 81.1 422.19C82 431.69 89.4 442.69 97.7 447.49Z" fill="#F35555"/>
<path d="M102.4 431.89C103.5 416.49 114.4 402.29 129 397.19C125.7 412.69 116.8 425.49 102.4 431.89Z" fill="#F35555"/>
<path d="M95.4 459.489C98.8 454.589 104.4 451.589 110.2 450.089C116 448.589 122 448.489 128 448.289C120 457.189 107.9 462.189 95.9 461.689" fill="#F35555"/>
<path d="M88.5 498.789C99.3 495.489 111.2 496.289 121.4 501.189C131.6 505.989 139.8 514.689 144.1 525.189C123.8 521.289 103.9 512.289 88.5 498.789Z" fill="#F35555"/>
<path d="M66.3 485.19C69.7 495.09 69 507.09 61.6 515.59C58.5 505.39 60.3 493.89 66.3 485.19Z" fill="#F35555"/>
<path d="M53.2 479.69C52.3 492.39 44.1 504.39 32.6 509.99C32 510.29 31.4 510.49 30.8 510.29C29.9 509.89 29.8 508.69 29.9 507.69C31.4 494.89 40.8 482.59 53.2 479.69Z" fill="#F35555"/>
<path d="M44.7 478.39C39 484.49 30.8 488.189 22.4 488.189C14.1 488.189 5.7 484.689 0 478.589C14.2 476.989 30.6 475.99 44.7 478.39Z" fill="#F35555"/>
<path d="M42.5 364.89C42.5 364.89 42.5 364.99 42.6 365.29C42.7 365.59 42.8 365.99 43 366.49C43.4 367.59 44 369.09 44.7 371.09C45.5 373.09 46.3 375.49 47.4 378.39C47.9 379.79 48.5 381.29 49 382.99C49.6 384.59 50.2 386.29 50.8 388.09C53.3 395.29 56.1 403.89 59.1 413.49C62.1 423.09 65.2 433.79 68.2 444.99C71.2 456.19 73.9 466.99 76.2 476.79C78.4 486.59 80.3 495.49 81.7 502.99C82.1 504.89 82.4 506.69 82.7 508.29C83 509.99 83.3 511.59 83.5 513.09C84 516.09 84.5 518.69 84.8 520.79C85.1 522.89 85.4 524.49 85.5 525.59C85.6 526.09 85.7 526.59 85.7 526.89C85.7 527.19 85.8 527.29 85.8 527.29C85.8 527.29 85.8 527.19 85.8 526.89C85.8 526.59 85.7 526.19 85.6 525.59C85.4 524.49 85.2 522.79 85 520.69C84.7 518.59 84.3 515.99 83.8 512.99C83.6 511.49 83.3 509.89 83 508.19C82.7 506.49 82.4 504.69 82 502.89C80.7 495.39 78.8 486.49 76.6 476.69C74.3 466.89 71.7 456.09 68.7 444.89C65.6 433.69 62.5 423.09 59.5 413.39C56.5 403.79 53.6 395.19 51.1 387.99C50.5 386.19 49.9 384.49 49.3 382.89C48.7 381.29 48.1 379.79 47.6 378.39C46.6 375.59 45.6 373.09 44.8 371.09C44 369.09 43.4 367.59 43 366.49C42.8 365.99 42.6 365.59 42.5 365.29C42.6 364.99 42.5 364.89 42.5 364.89Z" fill="#263238"/>
<path d="M120.5 405.49C120.5 405.49 120.4 405.59 120.3 405.69C120.1 405.89 119.9 406.09 119.6 406.39C119 406.99 118.1 407.99 117.1 409.19C115 411.69 111.9 415.39 108.7 420.29C105.5 425.19 102.2 431.49 100 438.99C97.7 446.39 96.2 454.89 94.8 463.79C91.9 481.49 88.4 497.39 85.8 508.79C84.5 514.49 83.5 519.09 82.7 522.39C82.4 523.99 82.1 525.19 81.9 526.09C81.8 526.49 81.8 526.79 81.7 527.09C81.7 527.29 81.6 527.39 81.7 527.39C81.7 527.39 81.7 527.29 81.8 527.09C81.9 526.89 81.9 526.49 82.1 526.09C82.3 525.19 82.6 523.99 83 522.39C83.8 519.19 84.9 514.59 86.2 508.89C88.9 497.49 92.5 481.59 95.4 463.89C96.8 455.09 98.3 446.59 100.6 439.19C102.8 431.79 106 425.49 109.2 420.59C112.3 415.59 115.3 411.89 117.4 409.39C118.4 408.09 119.3 407.19 119.8 406.49C120.1 406.19 120.3 405.89 120.4 405.79C120.5 405.59 120.5 405.49 120.5 405.49Z" fill="#263238"/>
<path d="M40.4 477.79C40.4 477.79 40.6 477.89 40.9 477.89C41.3 477.89 41.8 477.99 42.4 478.09C42.7 478.09 43.1 478.19 43.5 478.19C43.9 478.29 44.3 478.29 44.8 478.39C45.7 478.49 46.7 478.69 47.8 478.89C48.4 478.99 49 479.09 49.6 479.29C50.2 479.49 50.8 479.59 51.5 479.79C52.8 480.09 54.2 480.59 55.6 480.99C58.5 481.99 61.5 483.29 64.6 484.99C67.7 486.69 70.4 488.69 72.7 490.59C73.8 491.59 74.9 492.59 75.8 493.59C76.8 494.49 77.5 495.49 78.2 496.39C79 497.29 79.5 498.19 80 498.89C80.5 499.59 80.9 500.29 81.2 500.89C81.5 501.39 81.7 501.79 82 502.19C82.2 502.49 82.3 502.59 82.3 502.59C82.3 502.59 82.2 502.39 82.1 502.09C81.9 501.69 81.7 501.29 81.4 500.79C81.1 500.19 80.7 499.49 80.2 498.79C79.7 497.99 79.2 497.09 78.4 496.19C77.7 495.29 76.9 494.29 76 493.29C75.1 492.29 74 491.29 72.9 490.29C70.6 488.29 67.9 486.29 64.8 484.59C61.7 482.89 58.6 481.59 55.7 480.59C54.2 480.19 52.9 479.69 51.5 479.39C50.8 479.19 50.2 479.09 49.6 478.89C49 478.79 48.4 478.69 47.8 478.59C46.7 478.39 45.6 478.29 44.7 478.19C44.3 478.09 43.8 478.09 43.4 478.09C43 478.09 42.7 478.09 42.3 477.99C41.7 477.99 41.2 477.99 40.8 477.89C40.6 477.69 40.4 477.69 40.4 477.79Z" fill="#263238"/>
<path d="M36.4 405.789C36.4 405.789 36.7 406.189 37.4 406.789C38.2 407.489 39.2 408.289 40.3 409.289C42.8 411.389 46.2 414.289 50.1 417.489C53.9 420.689 57.4 423.489 60 425.589C61.2 426.589 62.2 427.389 63 427.989C63.7 428.589 64.1 428.889 64.2 428.789C64.2 428.789 63.9 428.389 63.2 427.789C62.4 427.089 61.4 426.289 60.3 425.289C57.8 423.189 54.4 420.289 50.5 417.089C46.7 413.889 43.2 411.089 40.6 408.989C39.4 407.989 38.4 407.189 37.6 406.589C36.8 406.089 36.4 405.789 36.4 405.789Z" fill="#263238"/>
<path d="M32.9 424.589C32.9 424.689 40.3 427.089 49.6 429.789C58.8 432.489 66.4 434.589 66.4 434.489C66.4 434.389 59 431.989 49.7 429.289C40.5 426.489 32.9 424.489 32.9 424.589Z" fill="#263238"/>
<path d="M60.4 417.089C60.4 417.089 60.7 416.689 61.2 415.989C61.7 415.189 62.4 414.189 63.2 412.989C64.9 410.489 67.2 406.989 70 403.389C72.8 399.689 75.5 396.489 77.5 394.289C78.4 393.189 79.2 392.289 79.9 391.589C80.5 390.989 80.8 390.589 80.7 390.589C80.7 390.589 80.3 390.889 79.7 391.489C79.1 392.089 78.2 392.989 77.2 394.089C75.1 396.289 72.4 399.489 69.6 403.189C66.8 406.889 64.5 410.389 62.9 412.889C62.1 414.189 61.5 415.189 61.1 415.989C60.6 416.689 60.4 417.089 60.4 417.089Z" fill="#263238"/>
<path d="M86.3 427.49C86.2 427.49 86.9 428.59 88 430.39C89.1 432.19 90.6 434.59 92.2 437.29C93.8 440.09 95.1 442.59 96 444.39C96.9 446.29 97.5 447.39 97.6 447.39C97.7 447.39 97.2 446.19 96.4 444.29C95.6 442.39 94.3 439.79 92.7 437.09C91.1 434.29 89.6 431.89 88.4 430.19C87.2 428.49 86.4 427.49 86.3 427.49Z" fill="#263238"/>
<path d="M95.2 459.989C95.2 460.089 96.7 459.389 99 458.289C101.3 457.289 104.6 455.889 108.3 454.589C112 453.289 115.4 452.389 117.8 451.689C120.3 451.089 121.8 450.689 121.8 450.589C121.8 450.589 121.4 450.589 120.7 450.689C120 450.789 119 450.989 117.7 451.289C115.2 451.789 111.8 452.689 108.1 453.989C104.4 455.289 101.2 456.689 98.9 457.889C97.8 458.489 96.8 458.989 96.2 459.289C95.5 459.789 95.2 459.989 95.2 459.989Z" fill="#263238"/>
<path d="M88.2 498.889C88.2 498.889 88.4 498.989 88.7 499.089C89.1 499.189 89.5 499.289 90 499.389C91.3 499.689 92.9 500.089 95 500.489C99.2 501.489 105 502.689 111.2 504.789C117.4 506.889 122.7 509.589 126.3 511.889C128.1 513.089 129.5 514.089 130.5 514.789C131.5 515.489 132 515.889 132 515.889C132 515.889 131.9 515.789 131.7 515.489C131.5 515.289 131.1 514.989 130.7 514.589C129.8 513.789 128.4 512.689 126.6 511.489C123 509.089 117.7 506.289 111.5 504.189C105.3 502.089 99.4 500.889 95.2 500.089C93.2 499.689 91.5 499.389 90.2 499.089C88.9 498.989 88.2 498.789 88.2 498.889Z" fill="#263238"/>
<path d="M63 508.49C63.1 508.49 64 503.29 65 496.79C65.9 490.29 66.6 485.09 66.4 484.99C66.3 484.99 65.4 490.19 64.4 496.69C63.5 503.19 62.8 508.39 63 508.49Z" fill="#263238"/>
<path d="M36.7 498.889C36.8 498.889 37.6 497.889 39.1 496.089C40.5 494.289 42.5 491.889 44.7 489.289C46.9 486.689 49 484.289 50.5 482.589C52 480.889 52.9 479.789 52.9 479.789C52.9 479.789 52.6 479.989 52.1 480.389C51.6 480.789 51 481.489 50.2 482.289C48.6 483.889 46.5 486.289 44.3 488.889C42.1 491.589 40.1 493.989 38.8 495.889C38.1 496.789 37.6 497.589 37.2 498.089C36.9 498.589 36.7 498.889 36.7 498.889Z" fill="#263238"/>
<path d="M106.2 523.289V536.189H103L91.4 572.589H65.9L54.7 536.589L50.4 536.189V523.289H106.2Z" fill="#F35555"/>
<g opacity="0.3">
<path opacity="0.3" d="M106.2 523.289V536.189H103L91.4 572.589H65.9L54.7 536.589L50.4 536.189V523.289H106.2Z" fill="black"/>
</g>
<path d="M52.5 536.589C52.5 536.689 63.8 536.889 77.7 536.889C91.6 536.889 102.9 536.789 102.9 536.589C102.9 536.389 91.6 536.289 77.7 536.289C63.8 536.289 52.5 536.489 52.5 536.589Z" fill="#263238"/>
<path d="M34.1 453.189C34.1 453.189 34.7 453.389 35.7 453.589C36.9 453.889 38.4 454.189 40.2 454.689C44 455.589 49.2 457.089 54.8 458.989C60.4 460.889 65.4 462.889 69 464.389C70.7 465.189 72.1 465.789 73.2 466.289C74.2 466.689 74.8 466.989 74.8 466.889C74.8 466.889 74.3 466.589 73.3 466.089C72.3 465.589 70.9 464.889 69.1 464.089C65.6 462.489 60.6 460.389 54.9 458.489C49.2 456.589 44 455.189 40.2 454.389C38.3 453.989 36.7 453.689 35.7 453.489C34.7 453.189 34.1 453.089 34.1 453.189Z" fill="#263238"/>
<path d="M61 556.79C61 556.89 68.9 557.09 78.7 557.09C88.5 557.09 96.4 556.99 96.4 556.79C96.4 556.59 88.5 556.49 78.7 556.49C68.9 556.49 61 556.69 61 556.79Z" fill="#FAFAFA"/>
<path d="M60 553.79C60 553.89 68.4 554.09 78.8 554.09C89.2 554.09 97.6 553.99 97.6 553.79C97.6 553.59 89.2 553.49 78.8 553.49C68.4 553.49 60 553.69 60 553.79Z" fill="#FAFAFA"/>
<path d="M656.19 256.244H911.808V397.219H696.631L683.278 424.48L671.451 397.219H656.19V256.244Z" fill="#455A64"/>
<path d="M656.191 256.244C656.191 257.603 656.095 310.596 656 397.219V397.389H656.191C660.864 397.389 666.11 397.389 671.452 397.389L671.261 397.304C674.981 405.881 678.987 415.053 683.088 424.565L683.279 424.99L683.469 424.565C687.666 415.987 692.149 406.731 696.823 397.304L696.632 397.389C754.432 397.389 820.912 397.389 891.207 397.389C898.075 397.389 904.942 397.389 911.809 397.389H912V397.134C912 346.944 912 299.216 912 256.159V255.99H911.809C760.918 256.159 658.194 256.244 656.191 256.244C658.194 256.244 760.918 256.329 911.809 256.414L911.618 256.244C911.618 299.301 911.618 346.944 911.618 397.219L911.905 396.964C905.133 396.964 898.265 396.964 891.303 396.964C821.007 396.964 754.528 396.964 696.727 396.964H696.537L696.441 397.049C691.768 406.561 687.285 415.818 683.088 424.31H683.469C679.368 414.799 675.362 405.542 671.642 397.049L671.547 396.964H671.452C666.11 396.964 660.864 396.964 656.191 396.964L656.382 397.134C656.286 310.596 656.191 257.603 656.191 256.244Z" fill="#263238"/>
<path d="M656.286 270.002C656.286 270.172 713.419 270.342 783.809 270.342C854.295 270.342 911.332 270.172 911.332 270.002C911.332 269.832 854.2 269.662 783.809 269.662C713.419 269.662 656.286 269.832 656.286 270.002Z" fill="#263238"/>
<path d="M898.17 263.803C898.17 264.822 899.124 265.671 900.268 265.671C901.413 265.671 902.367 264.822 902.367 263.803C902.367 262.784 901.413 261.934 900.268 261.934C899.124 261.934 898.17 262.699 898.17 263.803Z" fill="#FAC02D"/>
<path d="M890.635 263.803C890.635 264.822 891.589 265.671 892.733 265.671C893.878 265.671 894.832 264.822 894.832 263.803C894.832 262.784 893.878 261.934 892.733 261.934C891.589 261.934 890.635 262.699 890.635 263.803Z" fill="#1BB559"/>
<path d="M883.004 263.803C883.004 264.822 883.958 265.671 885.103 265.671C886.247 265.671 887.201 264.822 887.201 263.803C887.201 262.784 886.247 261.934 885.103 261.934C883.958 261.934 883.004 262.699 883.004 263.803Z" fill="#FF725E"/>
<path d="M883.863 295.225L889.967 297.348L883.863 299.471V300.745L891.493 298.027V296.753L883.863 294.036V295.225Z" fill="#FAC02D"/>
<path d="M877.568 289.789H876.042L881.669 304.142H883.195L877.568 289.789Z" fill="#FAC02D"/>
<path d="M867.934 296.668V297.942L875.565 300.66V299.386L869.461 297.263L875.565 295.14V293.866L867.934 296.668Z" fill="#FAC02D"/>
<path d="M866.027 301.679C866.027 301.084 865.455 300.66 864.882 300.66C864.31 300.66 863.738 301.084 863.738 301.679C863.738 302.273 864.215 302.698 864.882 302.698C865.455 302.698 866.027 302.273 866.027 301.679Z" fill="#FAC02D"/>
<path d="M862.116 301.679C862.116 301.084 861.544 300.66 860.972 300.66C860.399 300.66 859.827 301.084 859.827 301.679C859.827 302.273 860.304 302.698 860.972 302.698C861.544 302.698 862.116 302.273 862.116 301.679Z" fill="#FAC02D"/>
<path d="M858.206 301.679C858.206 301.084 857.633 300.66 857.061 300.66C856.489 300.66 855.917 301.084 855.917 301.679C855.917 302.273 856.393 302.698 857.061 302.698C857.729 302.698 858.206 302.273 858.206 301.679Z" fill="#FAC02D"/>
<path d="M722.48 315.352C722.48 315.522 760.25 315.692 806.891 315.692C853.532 315.692 891.303 315.522 891.303 315.352C891.303 315.182 853.532 315.012 806.891 315.012C760.25 315.012 722.48 315.182 722.48 315.352Z" fill="#1BB559"/>
<path d="M694.915 315.776C694.915 315.946 698.54 316.116 703.022 316.116C707.505 316.116 711.13 315.946 711.13 315.776C711.13 315.607 707.505 315.437 703.022 315.437C698.54 315.437 694.915 315.607 694.915 315.776Z" fill="#FF725E"/>
<path d="M671.261 315.776C671.261 315.946 675.267 316.116 680.131 316.116C684.996 316.116 689.002 315.946 689.002 315.776C689.002 315.607 684.996 315.437 680.131 315.437C675.171 315.437 671.261 315.607 671.261 315.776Z" fill="#FF725E"/>
<path d="M783.809 328.006C783.809 328.175 807.845 328.345 837.413 328.345C867.076 328.345 891.016 328.175 891.016 328.006C891.016 327.836 866.981 327.666 837.413 327.666C807.845 327.666 783.809 327.836 783.809 328.006Z" fill="#455A64"/>
<path d="M784.572 375.224C784.572 375.394 808.608 375.563 838.176 375.563C867.839 375.563 891.779 375.394 891.779 375.224C891.779 375.054 867.744 374.884 838.176 374.884C808.608 374.884 784.572 375.054 784.572 375.224Z" fill="#455A64"/>
<path d="M744.799 328.006C744.799 328.175 751.38 328.345 759.392 328.345C767.499 328.345 773.985 328.175 773.985 328.006C773.985 327.836 767.499 327.666 759.392 327.666C751.38 327.666 744.799 327.836 744.799 328.006Z" fill="#263238"/>
<path d="M745.18 375.224C745.18 375.394 751.762 375.563 759.773 375.563C767.881 375.563 774.367 375.394 774.367 375.224C774.367 375.054 767.881 374.884 759.773 374.884C751.666 374.884 745.18 375.054 745.18 375.224Z" fill="#263238"/>
<path d="M884.054 334.46C884.054 334.63 885.675 334.8 887.678 334.8C889.681 334.8 891.303 334.63 891.303 334.46C891.303 334.29 889.681 334.12 887.678 334.12C885.675 334.12 884.054 334.29 884.054 334.46Z" fill="#FF725E"/>
<path d="M859.064 334.545C859.064 334.715 862.593 334.884 866.885 334.884C871.273 334.884 874.706 334.715 874.706 334.545C874.706 334.375 871.177 334.205 866.885 334.205C862.593 334.29 859.064 334.375 859.064 334.545Z" fill="#FF725E"/>
<path d="M843.136 334.545C843.136 334.715 846.188 334.884 849.908 334.884C853.627 334.884 856.68 334.715 856.68 334.545C856.68 334.375 853.627 334.205 849.908 334.205C846.188 334.29 843.136 334.375 843.136 334.545Z" fill="#FF725E"/>
<path d="M822.915 334.545C822.915 334.715 825.967 334.884 829.782 334.884C833.598 334.884 836.65 334.715 836.65 334.545C836.65 334.375 833.598 334.205 829.782 334.205C825.967 334.29 822.915 334.375 822.915 334.545Z" fill="#FF725E"/>
<path d="M805.174 334.545C805.174 334.715 807.94 334.884 811.374 334.884C814.808 334.884 817.574 334.715 817.574 334.545C817.574 334.375 814.808 334.205 811.374 334.205C808.036 334.29 805.174 334.375 805.174 334.545Z" fill="#FF725E"/>
<path d="M746.611 334.545C746.611 334.715 758.915 334.884 774.08 334.884C789.246 334.884 801.55 334.715 801.55 334.545C801.55 334.375 789.246 334.205 774.08 334.205C758.82 334.29 746.611 334.375 746.611 334.545Z" fill="#FF725E"/>
<path d="M885.007 342.613C885.007 342.782 886.438 342.952 888.155 342.952C889.872 342.952 891.303 342.782 891.303 342.613C891.303 342.443 889.872 342.273 888.155 342.273C886.438 342.358 885.007 342.443 885.007 342.613Z" fill="#FF725E"/>
<path d="M884.817 351.105C884.817 351.275 886.247 351.445 888.06 351.445C889.872 351.445 891.303 351.275 891.303 351.105C891.303 350.935 889.872 350.765 888.06 350.765C886.247 350.765 884.817 350.935 884.817 351.105Z" fill="#FF725E"/>
<path d="M884.817 360.617C884.817 360.787 886.247 360.956 888.06 360.956C889.872 360.956 891.303 360.787 891.303 360.617C891.303 360.447 889.872 360.277 888.06 360.277C886.247 360.362 884.817 360.447 884.817 360.617Z" fill="#FF725E"/>
<path d="M825.681 360.192C825.681 360.362 836.554 360.532 849.908 360.532C863.261 360.532 874.134 360.362 874.134 360.192C874.134 360.022 863.261 359.852 849.908 359.852C836.459 359.852 825.681 360.022 825.681 360.192Z" fill="#FF725E"/>
<path d="M829.878 351.105C829.878 351.275 840.179 351.445 852.96 351.445C865.741 351.445 876.042 351.275 876.042 351.105C876.042 350.935 865.741 350.765 852.96 350.765C840.274 350.765 829.878 350.935 829.878 351.105Z" fill="#1BB559"/>
<path d="M718.379 342.188C718.379 342.358 753.574 342.528 796.972 342.528C840.37 342.528 875.565 342.358 875.565 342.188C875.565 342.018 840.37 341.848 796.972 341.848C753.574 341.933 718.379 342.018 718.379 342.188Z" fill="#FAC02D"/>
<path d="M707.878 490.779L688 471.099L723.503 410.28C727.162 406.028 731.909 402.764 737.15 400.786L749.61 396.04L780.663 390.304L802.716 399.006C808.254 401.182 811.715 406.918 811.023 412.851L805.287 461.507L801.925 524.798L721.723 510.854L729.832 487.417L729.535 450.925L707.878 490.779Z" fill="#F35555"/>
<path d="M728.942 485.933C728.744 485.933 728.744 473.275 728.843 457.65C728.942 442.025 729.238 429.366 729.436 429.366C729.634 429.366 729.634 442.025 729.535 457.65C729.436 473.275 729.14 485.933 728.942 485.933Z" fill="#263238"/>
<path d="M731.909 495.229L780.366 475.747C784.322 474.165 786.992 470.506 787.289 466.352L790.849 419.873C790.849 419.873 790.453 400.094 802.815 399.105L809.836 401.874C818.934 406.72 821.209 419.873 819.923 430.158C818.143 444.695 817.451 465.166 815.473 477.725C813.891 488.01 807.661 496.119 797.87 499.679L738.139 512.634L731.909 495.229Z" fill="#F35555"/>
<path d="M790.157 426.894C790.157 426.894 790.058 427.29 789.959 427.982C789.86 428.773 789.761 429.762 789.662 431.048C789.365 433.817 789.069 437.575 788.673 442.321C788.278 447.068 787.783 452.804 787.19 459.034C787.091 460.617 786.893 462.199 786.794 463.88C786.695 465.561 786.596 467.243 786.201 468.825C785.805 470.506 785.014 471.989 783.827 473.176C782.542 474.363 780.96 475.253 779.377 475.945C766.027 481.681 753.665 486.527 744.765 489.889C740.315 491.57 736.754 492.856 734.183 493.845C732.996 494.339 732.007 494.636 731.315 494.933C730.623 495.229 730.326 495.328 730.326 495.328C730.326 495.328 730.722 495.229 731.315 495.031C732.007 494.834 732.996 494.438 734.282 494.043C736.853 493.152 740.512 491.966 744.962 490.285C753.962 487.021 766.323 482.373 779.674 476.538C781.355 475.747 782.937 474.857 784.322 473.671C785.706 472.385 786.498 470.704 786.893 469.023C787.289 467.341 787.388 465.561 787.486 463.979C787.585 462.298 787.783 460.716 787.882 459.133C788.376 452.804 788.772 447.167 789.168 442.42C789.464 437.673 789.761 433.817 789.959 431.147C790.058 429.861 790.058 428.872 790.157 428.081C790.157 427.191 790.157 426.894 790.157 426.894Z" fill="#263238"/>
<path d="M817.945 452.112C817.945 452.112 817.847 452.31 817.847 452.705C817.847 453.2 817.748 453.793 817.649 454.485C817.55 456.166 817.352 458.342 817.055 461.111C816.759 463.88 816.462 467.242 815.968 470.902C815.473 474.561 814.88 478.615 813.792 482.67C813.298 484.747 812.506 486.626 811.419 488.307C810.331 489.988 809.045 491.471 807.76 492.757C805.188 495.427 802.419 497.306 800.046 498.592C795.101 501.163 791.442 501.163 791.541 501.361C791.541 501.361 791.739 501.361 792.134 501.361C792.53 501.361 793.123 501.262 793.914 501.163C795.497 500.866 797.672 500.273 800.244 498.987C802.815 497.702 805.584 495.823 808.254 493.152C809.54 491.867 810.825 490.285 812.012 488.603C813.199 486.922 813.99 484.845 814.484 482.769C815.572 478.615 816.165 474.561 816.66 470.902C817.154 467.242 817.451 463.88 817.649 461.111C817.847 458.342 817.945 456.068 818.044 454.485C818.044 453.793 818.044 453.2 818.044 452.705C817.945 452.31 817.945 452.112 817.945 452.112Z" fill="#263238"/>
<path d="M797.178 484.648C797.277 484.648 797.079 483.56 796.288 482.076C795.596 480.593 794.211 478.615 792.233 476.835C790.255 475.154 788.08 474.066 786.498 473.671C784.915 473.176 783.827 473.176 783.827 473.176C783.827 473.275 784.816 473.473 786.399 474.066C787.981 474.659 789.959 475.747 791.937 477.33C793.816 479.011 795.2 480.791 795.991 482.274C796.684 483.758 797.079 484.648 797.178 484.648Z" fill="#263238"/>
<g opacity="0.3">
<g opacity="0.3">
<g opacity="0.3">
<path opacity="0.3" d="M745.852 489.691C750.995 486.724 756.137 484.549 761.576 482.076C767.016 479.604 772.257 476.44 775.817 471.693C782.542 462.693 781.751 449.64 788.574 440.739C788.08 446.772 787.684 452.705 787.19 458.738C786.794 464.177 787.585 469.616 784.124 473.374C781.157 476.538 775.323 478.912 771.268 480.296C762.961 482.868 754.061 486.922 745.852 489.691Z" fill="black"/>
</g>
</g>
</g>
<path opacity="0.3" d="M729.436 432.828L725.184 458.738L729.14 451.42L729.436 432.828Z" fill="black"/>
<path d="M791.64 416.906C791.64 416.906 792.036 417.005 792.728 417.005C793.519 417.005 794.607 417.005 795.793 417.104C798.365 417.203 801.925 417.302 805.881 417.598C809.836 417.895 813.396 418.29 815.869 418.587C817.055 418.686 818.044 418.884 818.934 418.983C819.627 419.082 820.022 419.082 820.022 419.082C820.022 419.082 819.627 418.983 818.934 418.785C818.242 418.686 817.154 418.488 815.869 418.29C813.298 417.895 809.737 417.499 805.782 417.203C801.826 416.906 798.266 416.807 795.695 416.906C794.409 416.906 793.321 416.906 792.629 417.005C792.036 416.807 791.64 416.906 791.64 416.906Z" fill="#455A64"/>
<path d="M790.255 441.629C790.255 441.728 796.585 442.42 804.496 443.014C812.309 443.706 818.737 444.102 818.737 443.904C818.737 443.805 812.407 443.113 804.496 442.519C796.585 441.926 790.255 441.53 790.255 441.629Z" fill="#455A64"/>
<path d="M787.882 467.638C787.882 467.638 788.179 467.836 788.871 468.231C789.563 468.528 790.552 469.023 791.739 469.517C794.211 470.605 797.672 471.792 801.628 472.682C805.584 473.572 809.243 473.967 811.913 474.066C813.199 474.165 814.286 474.165 815.078 474.066C815.869 474.066 816.264 473.967 816.264 473.967C816.264 473.967 815.869 473.868 815.078 473.868C814.385 473.868 813.298 473.769 811.913 473.671C809.243 473.473 805.683 473.077 801.727 472.187C797.771 471.297 794.31 470.11 791.838 469.22C790.552 468.726 789.563 468.33 788.97 468.034C788.278 467.737 787.882 467.638 787.882 467.638Z" fill="#455A64"/>
<path d="M770.675 480.989C770.576 481.088 773.246 482.274 775.52 484.845C777.795 487.417 778.685 490.087 778.883 489.988C778.982 489.988 778.784 489.296 778.388 488.208C777.894 487.12 777.103 485.736 775.916 484.45C774.729 483.164 773.444 482.175 772.455 481.681C771.367 481.186 770.675 480.989 770.675 480.989Z" fill="#455A64"/>
<path d="M753.072 498.196C753.171 498.196 752.676 495.724 751.193 493.054C749.709 490.383 748.028 488.603 747.929 488.702C747.83 488.801 749.314 490.68 750.797 493.35C752.182 495.921 752.973 498.196 753.072 498.196Z" fill="#455A64"/>
<path d="M780.762 402.369C780.762 402.468 783.827 403.16 787.585 403.852C791.442 404.544 794.508 404.94 794.508 404.841C794.508 404.742 791.442 404.05 787.684 403.358C783.827 402.665 780.762 402.171 780.762 402.369Z" fill="#455A64"/>
<path d="M734.282 404.445C734.282 404.544 738.534 404.149 743.776 403.555C749.017 402.962 753.269 402.27 753.269 402.171C753.269 402.072 749.017 402.468 743.776 403.061C738.534 403.654 734.282 404.347 734.282 404.445Z" fill="#455A64"/>
<path d="M730.326 426.004C730.326 426.004 730.524 426.004 730.92 426.004C731.414 426.004 731.909 426.004 732.7 426.004C734.282 426.004 736.458 426.004 739.128 426.004C744.567 426.004 751.984 426.004 760.192 426.301C768.4 426.499 775.916 426.894 781.256 427.092C783.926 427.191 786.102 427.389 787.684 427.389C788.376 427.389 788.97 427.488 789.464 427.488C789.86 427.488 790.058 427.488 790.058 427.488C790.058 427.488 789.86 427.389 789.464 427.389C788.97 427.389 788.475 427.29 787.684 427.191C786.201 427.092 784.025 426.894 781.256 426.696C775.817 426.301 768.4 425.905 760.192 425.707C751.984 425.51 744.468 425.51 739.128 425.609C736.458 425.609 734.282 425.707 732.7 425.806C732.007 425.806 731.414 425.905 730.92 425.905C730.524 426.004 730.326 426.004 730.326 426.004Z" fill="#455A64"/>
<path d="M729.832 453.397C729.832 453.496 742.589 454.485 758.214 455.573C773.938 456.562 786.596 457.353 786.695 457.155C786.695 457.057 774.037 456.068 758.313 454.98C742.589 453.991 729.832 453.2 729.832 453.397Z" fill="#455A64"/>
<path d="M731.117 477.428C731.117 477.428 731.513 477.626 732.205 477.923C732.898 478.22 733.886 478.516 735.172 478.912C737.743 479.703 741.303 480.791 745.259 481.78C749.215 482.769 752.874 483.461 755.544 483.857C756.83 484.054 757.917 484.252 758.709 484.252C759.5 484.351 759.895 484.351 759.895 484.351C759.895 484.351 759.5 484.252 758.807 484.054C758.016 483.857 756.929 483.659 755.742 483.461C753.171 482.966 749.512 482.175 745.556 481.285C741.6 480.296 738.04 479.307 735.469 478.615C734.282 478.22 733.293 478.022 732.403 477.725C731.513 477.527 731.117 477.428 731.117 477.428Z" fill="#455A64"/>
<path d="M710.844 433.817C710.844 433.916 714.899 435.102 720.041 436.487C725.184 437.772 729.337 438.761 729.436 438.662C729.436 438.564 725.382 437.377 720.239 435.992C714.998 434.608 710.844 433.619 710.844 433.817Z" fill="#455A64"/>
<path d="M720.536 415.324C720.536 415.423 722.316 415.917 724.59 416.313C726.865 416.708 728.744 416.906 728.744 416.807C728.744 416.708 726.964 416.214 724.689 415.818C722.415 415.423 720.536 415.225 720.536 415.324Z" fill="#455A64"/>
<path d="M789.959 421.059C790.058 421.059 790.255 419.378 791.145 416.906C792.036 414.434 793.816 411.17 796.782 408.401C799.749 405.731 803.21 404.248 805.782 403.654C808.353 403.061 810.034 403.061 810.034 402.962C810.034 402.962 809.639 402.863 808.847 402.962C808.056 402.962 806.968 403.061 805.683 403.358C803.112 403.852 799.453 405.335 796.387 408.104C793.321 410.873 791.541 414.236 790.75 416.807C790.354 418.093 790.157 419.181 790.058 419.873C789.959 420.664 789.959 421.059 789.959 421.059Z" fill="#263238"/>
<path d="M732.205 407.907C732.106 407.907 731.315 411.961 730.524 416.906C729.733 421.95 729.14 426.004 729.337 426.004C729.436 426.004 730.227 421.949 731.019 417.005C731.81 411.961 732.403 407.907 732.205 407.907Z" fill="#263238"/>
<path d="M681.19 554.1C681.19 554.1 643.907 564.385 642.424 564.978C640.15 565.769 640.545 573.977 644.006 573.878C645.687 573.78 672.586 574.867 676.048 574.67C679.41 574.472 689.695 570.417 689.695 570.417L681.19 554.1Z" fill="#F35555"/>
<path d="M665.664 568.242C665.466 568.242 665.268 566.264 663.983 564.286C662.796 562.209 661.214 561.022 661.313 560.825C661.411 560.726 663.192 561.715 664.477 563.989C665.862 566.165 665.763 568.242 665.664 568.242Z" fill="#263238"/>
<path d="M669.521 566.461C669.323 566.461 668.927 564.78 667.938 562.802C666.949 560.825 665.763 559.539 665.862 559.341C665.961 559.242 667.444 560.429 668.433 562.506C669.62 564.582 669.718 566.461 669.521 566.461Z" fill="#263238"/>
<path d="M673.18 565.571C672.982 565.571 673.18 563.692 672.29 561.616C671.499 559.539 670.114 558.253 670.213 558.154C670.312 558.056 671.993 559.143 672.784 561.418C673.773 563.594 673.378 565.571 673.18 565.571Z" fill="#263238"/>
<path d="M672.487 560.726C672.389 560.726 672.092 559.737 672.092 557.957C672.092 557.067 672.191 556.078 672.487 554.891C672.586 554.298 672.784 553.704 673.081 553.21C673.18 552.913 673.378 552.616 673.674 552.32C674.07 552.023 674.663 552.023 674.96 552.419C675.256 552.715 675.454 553.111 675.454 553.506C675.454 553.803 675.553 554.199 675.454 554.495C675.454 555.089 675.355 555.781 675.256 556.275C674.96 557.462 674.564 558.352 674.07 559.143C673.18 560.627 672.487 561.418 672.389 561.418C672.29 561.319 672.883 560.528 673.674 558.946C674.07 558.154 674.465 557.264 674.663 556.177C674.762 555.682 674.861 555.089 674.861 554.495C674.861 553.902 674.861 553.21 674.564 552.913C674.366 552.814 674.268 552.715 674.07 552.913C673.872 553.012 673.773 553.309 673.674 553.605C673.476 554.199 673.279 554.693 673.081 555.287C672.784 556.374 672.685 557.363 672.586 558.154C672.488 559.638 672.586 560.726 672.487 560.726Z" fill="#263238"/>
<path d="M672.586 560.33C672.586 560.231 673.476 559.935 674.96 559.935C675.751 559.935 676.641 560.033 677.63 560.231C678.124 560.33 678.619 560.528 679.113 560.825C679.608 561.121 680.201 561.813 680.003 562.506C679.806 563.198 679.212 563.692 678.619 563.791C678.026 563.989 677.432 563.89 676.938 563.791C675.949 563.594 675.158 563.099 674.564 562.605C673.378 561.715 672.784 560.923 672.784 560.923C672.883 560.825 673.575 561.418 674.762 562.308C675.355 562.704 676.147 563.099 677.037 563.297C677.531 563.396 678.026 563.396 678.421 563.297C678.817 563.198 679.212 562.802 679.311 562.407C679.41 562.011 679.212 561.616 678.718 561.319C678.322 561.022 677.828 560.923 677.333 560.825C676.443 560.528 675.553 560.429 674.861 560.429C673.476 560.33 672.586 560.429 672.586 560.33Z" fill="#263238"/>
<path d="M659.928 568.637C659.73 568.637 659.928 567.055 659.236 565.275C658.544 563.495 657.258 562.506 657.456 562.407C657.555 562.209 659.038 563.099 659.829 565.077C660.62 567.055 660.027 568.736 659.928 568.637Z" fill="#263238"/>
<path d="M685.937 570.417C685.937 570.417 685.443 570.714 684.454 571.109C683.465 571.505 682.08 571.999 680.3 572.395C676.74 573.285 671.696 573.78 666.059 573.78C660.521 573.681 655.478 573.483 651.819 573.285C650.138 573.186 648.654 573.087 647.468 573.087C646.479 572.988 645.885 572.988 645.885 572.89C645.885 572.89 646.479 572.791 647.468 572.791C648.654 572.791 650.039 572.791 651.819 572.791C655.577 572.889 660.521 572.988 666.059 573.087C671.597 573.186 676.641 572.692 680.201 571.901C683.761 571.208 685.838 570.318 685.937 570.417Z" fill="#263238"/>
<path d="M687.025 571.208C686.926 571.307 685.937 570.714 684.256 569.923C682.575 569.23 680.003 568.34 677.234 568.736C674.465 569.132 672.389 571.011 671.103 572.395C669.817 573.78 669.026 574.67 668.927 574.571C668.828 574.571 669.521 573.582 670.707 572.098C671.301 571.406 672.092 570.516 673.18 569.824C674.169 569.033 675.553 568.439 677.037 568.143C680.003 567.648 682.673 568.637 684.355 569.527C686.135 570.417 687.025 571.208 687.025 571.208Z" fill="#263238"/>
<path d="M725.296 545.397C725.296 545.397 760.601 568.439 761.788 569.428C763.667 570.912 761.491 577.735 758.228 576.549C756.645 575.955 727.076 567.747 723.912 566.56C720.747 565.275 712.144 558.352 712.144 558.352L725.296 545.397Z" fill="#F35555"/>
<path d="M735.779 563.693C735.581 563.693 736.274 561.616 738.152 559.935C740.031 558.253 742.108 557.759 742.108 557.957C742.207 558.154 740.328 558.847 738.548 560.429C736.768 561.912 735.878 563.791 735.779 563.693Z" fill="#263238"/>
<path d="M732.614 560.825C732.417 560.726 733.109 558.946 734.79 557.363C736.372 555.682 738.152 554.99 738.251 555.188C738.35 555.385 736.768 556.275 735.285 557.858C733.603 559.341 732.713 560.923 732.614 560.825Z" fill="#263238"/>
<path d="M729.45 558.748C729.252 558.748 729.45 556.77 731.032 554.891C732.516 553.012 734.493 552.419 734.493 552.616C734.592 552.814 732.911 553.605 731.527 555.287C730.043 556.968 729.549 558.847 729.45 558.748Z" fill="#263238"/>
<path d="M731.527 554.397C731.428 554.397 731.922 553.408 732.318 551.726C732.516 550.935 732.713 549.946 732.713 548.76C732.713 548.166 732.713 547.573 732.713 546.98C732.713 546.683 732.614 546.386 732.516 546.188C732.417 545.991 732.219 545.991 732.021 546.09C731.626 546.287 731.428 546.98 731.23 547.474C731.032 548.067 730.933 548.562 730.933 549.155C730.834 550.243 730.933 551.232 731.032 552.122C731.329 553.803 731.626 554.792 731.527 554.891C731.428 554.891 730.933 553.902 730.637 552.221C730.439 551.331 730.34 550.342 730.439 549.155C730.439 548.562 730.637 547.968 730.735 547.375C730.834 547.078 730.933 546.782 731.032 546.485C731.131 546.188 731.428 545.793 731.823 545.595C732.219 545.397 732.812 545.496 733.109 545.892C733.307 546.287 733.406 546.584 733.406 546.98C733.406 547.573 733.406 548.265 733.406 548.76C733.307 549.946 733.109 550.935 732.812 551.726C732.219 553.506 731.527 554.397 731.527 554.397Z" fill="#263238"/>
<path d="M731.527 554.001C731.527 554.1 730.637 553.704 729.252 553.309C728.56 553.111 727.67 553.012 726.681 553.012C726.186 553.012 725.692 553.012 725.197 553.111C724.703 553.21 724.406 553.506 724.307 553.902C724.307 554.298 724.505 554.792 724.901 554.99C725.296 555.287 725.791 555.385 726.186 555.385C727.076 555.484 727.966 555.287 728.659 555.089C730.043 554.693 730.933 554.298 730.933 554.397C730.933 554.495 730.142 554.99 728.758 555.484C728.065 555.781 727.175 555.979 726.087 555.88C725.593 555.88 725 555.682 724.505 555.385C724.011 555.089 723.615 554.397 723.615 553.704C723.615 552.913 724.406 552.419 724.901 552.32C725.494 552.221 725.989 552.221 726.483 552.221C727.472 552.32 728.362 552.518 729.054 552.715C730.834 553.408 731.626 553.902 731.527 554.001Z" fill="#263238"/>
<path d="M753.778 575.263C753.778 575.362 753.184 574.867 752.888 573.878C752.591 572.89 752.789 571.406 753.58 570.022C753.975 569.329 754.371 568.736 754.766 568.242C755.162 567.747 755.558 567.253 755.953 566.956C756.349 566.659 756.744 566.461 757.041 566.461C757.338 566.461 757.535 566.56 757.437 566.56C757.437 566.659 756.843 566.659 756.151 567.253C755.854 567.549 755.459 568.044 755.162 568.538C754.766 569.033 754.371 569.626 754.074 570.219C753.382 571.505 753.184 572.791 753.283 573.681C753.481 574.67 753.778 575.164 753.778 575.263Z" fill="#263238"/>
<path d="M741.119 565.769C740.921 565.769 741.02 563.989 742.405 562.407C743.789 560.825 745.471 560.429 745.471 560.627C745.569 560.825 744.086 561.418 742.8 562.802C741.614 564.286 741.218 565.769 741.119 565.769Z" fill="#263238"/>
<path d="M715.803 559.539C715.803 559.539 716.396 559.935 717.385 560.627C718.374 561.319 719.857 562.308 721.736 563.297C723.615 564.286 725.989 565.374 728.659 566.363C731.329 567.352 734.296 568.34 737.46 569.23C743.789 571.011 749.525 572.692 753.679 573.977C755.657 574.571 757.338 575.065 758.623 575.461C759.81 575.856 760.403 576.054 760.403 576.054C760.403 576.054 759.711 575.955 758.524 575.659C757.239 575.362 755.558 574.867 753.58 574.373C749.426 573.186 743.69 571.604 737.262 569.824C734.098 568.934 731.032 567.945 728.362 566.956C725.692 565.967 723.318 564.78 721.44 563.692C719.561 562.605 718.077 561.616 717.187 560.825C716.198 560.033 715.803 559.539 715.803 559.539Z" fill="#263238"/>
<path d="M714.517 560.033C714.517 559.935 715.605 559.539 717.484 559.242C719.363 558.946 722.132 558.748 724.901 560.132C726.285 560.825 727.274 561.813 728.065 562.901C728.857 563.89 729.351 564.978 729.747 565.868C730.538 567.648 730.834 568.736 730.735 568.835C730.637 568.835 730.142 567.747 729.351 566.066C728.56 564.385 727.175 562.011 724.604 560.726C722.033 559.44 719.363 559.539 717.484 559.737C715.605 559.836 714.517 560.132 714.517 560.033Z" fill="#263238"/>
<path d="M652.017 487.644C652.017 487.644 641.435 491.402 641.435 503.269C641.336 526.014 687.321 551.034 687.321 551.034L748.536 510.488L752.393 508.906C752.294 509.005 669.718 477.952 652.017 487.644Z" fill="#263238"/>
<path d="M717.484 530.959C717.484 530.959 716.89 530.563 715.902 529.871C714.913 529.179 713.429 528.091 711.748 526.706C708.287 524.036 703.441 520.179 698.299 515.729C693.156 511.279 688.607 507.224 685.443 504.159C683.86 502.675 682.575 501.39 681.685 500.5C680.794 499.61 680.3 499.115 680.399 499.115C680.399 499.115 680.992 499.511 681.882 500.302C682.871 501.192 684.157 502.379 685.739 503.862C689.003 506.829 693.552 510.883 698.694 515.334C703.837 519.685 708.485 523.641 711.946 526.41C713.627 527.794 715.011 528.882 716 529.772C716.989 530.464 717.484 530.959 717.484 530.959Z" fill="#455A64"/>
<path d="M669.224 496.148C669.224 495.951 671.894 495.753 675.158 496.643C678.322 497.533 680.498 499.313 680.399 499.412C680.3 499.61 678.026 498.126 674.96 497.236C671.894 496.346 669.224 496.346 669.224 496.148Z" fill="#455A64"/>
<path d="M674.564 492.588C674.663 492.489 676.542 493.281 678.223 495.357C679.806 497.335 680.3 499.412 680.102 499.511C679.904 499.61 679.212 497.632 677.729 495.753C676.147 493.775 674.465 492.786 674.564 492.588Z" fill="#455A64"/>
<path d="M648.654 564.484C648.654 564.385 649.346 564.286 650.237 564.978C651.028 565.67 651.819 566.956 652.017 568.538C652.214 570.12 651.918 571.505 651.423 572.494C651.028 573.384 650.533 573.878 650.434 573.779C650.335 573.681 650.731 573.186 651.028 572.296C651.324 571.406 651.621 570.022 651.423 568.637C651.225 567.253 650.632 565.967 649.94 565.374C649.248 564.681 648.555 564.582 648.654 564.484Z" fill="#263238"/>
<path d="M656.368 455.405L673.773 502.28C674.762 504.95 677.333 506.73 680.201 506.73L776.028 505.444V498.126L740.427 499.412L725.296 452.636C724.802 451.053 723.318 449.965 721.637 449.965L659.829 450.163C657.159 450.163 655.379 452.932 656.368 455.405Z" fill="#E0E0E0"/>
<path d="M656.368 455.404V455.305C656.368 455.206 656.269 455.107 656.269 454.909C656.17 454.514 656.071 453.92 656.269 453.129C656.467 452.338 656.961 451.448 657.95 450.855C658.445 450.558 659.038 450.36 659.73 450.261C660.423 450.261 661.115 450.261 661.906 450.261C667.938 450.261 676.74 450.261 687.717 450.261C693.255 450.261 699.287 450.261 705.814 450.261C709.078 450.261 712.44 450.261 716 450.261C717.78 450.261 719.561 450.261 721.341 450.261C722.231 450.261 723.121 450.36 723.912 450.855C724.703 451.349 725.197 452.041 725.494 452.931C730.043 467.073 735.087 482.797 740.526 499.708V499.807H740.625C751.997 499.411 763.865 498.917 776.226 498.521L776.028 498.323C776.028 498.719 776.028 499.213 776.028 499.609C776.028 501.686 776.028 503.663 776.028 505.542L776.226 505.345C754.766 505.641 734.395 505.938 716 506.136C706.803 506.235 698.002 506.334 689.794 506.531C687.717 506.531 685.739 506.63 683.761 506.63C682.772 506.63 681.783 506.63 680.795 506.63C679.806 506.63 678.916 506.531 678.026 506.235C676.245 505.542 674.861 504.158 674.169 502.576C673.575 500.894 672.883 499.213 672.29 497.532C667.444 484.478 663.488 473.996 660.818 466.678C659.434 463.018 658.445 460.249 657.654 458.371C656.763 456.393 656.368 455.404 656.368 455.404C656.368 455.404 656.763 456.393 657.456 458.371C658.148 460.249 659.236 463.117 660.521 466.776C663.192 474.095 667.147 484.577 671.894 497.631C672.488 499.213 673.081 500.894 673.773 502.675C674.465 504.356 675.949 505.839 677.729 506.531C678.619 506.828 679.608 507.026 680.597 506.927C681.586 506.927 682.575 506.927 683.564 506.927C685.541 506.927 687.519 506.828 689.596 506.828C697.804 506.729 706.606 506.63 715.803 506.531C734.296 506.334 754.668 506.037 776.028 505.74H776.226V505.542C776.226 503.663 776.226 501.587 776.226 499.609C776.226 499.114 776.226 498.719 776.226 498.323V498.125H776.028C763.766 498.62 751.8 499.016 740.427 499.411L740.625 499.51C735.186 482.698 730.142 466.974 725.494 452.833C725.197 451.942 724.604 451.151 723.813 450.657C723.022 450.162 722.033 449.965 721.143 450.063C719.363 450.063 717.583 450.063 715.803 450.063C712.341 450.063 708.88 450.063 705.617 450.063C699.09 450.063 693.057 450.063 687.519 450.162C676.542 450.261 667.741 450.261 661.708 450.261C660.917 450.261 660.225 450.261 659.533 450.261C658.84 450.261 658.247 450.558 657.752 450.855C656.764 451.448 656.269 452.437 656.071 453.129C655.873 453.92 655.972 454.514 656.071 454.909C656.269 455.206 656.368 455.404 656.368 455.404Z" fill="#263238"/>
<path d="M698.892 473.106C697.606 472.216 695.332 472.612 694.244 473.601C693.156 474.59 692.761 476.37 693.354 477.754C693.947 479.139 695.332 480.128 696.815 480.227C698.397 480.326 700.079 479.337 700.474 477.754C700.969 476.271 700.474 473.898 698.892 473.106Z" fill="white"/>
<path d="M676.938 553.605C676.938 553.605 763.271 498.324 767.128 496.148C770.392 494.269 779.094 488.929 787.599 491.303C796.203 493.676 803.817 501.291 807.674 512.565C809.85 518.993 810.938 529.871 811.432 538.079C812.026 547.869 808.96 557.66 802.532 565.077C799.664 568.439 796.005 571.406 791.752 572.692C790.862 572.988 789.874 573.186 788.983 573.384C772.666 576.944 755.854 569.626 746.657 555.583L744.679 552.517C744.679 552.517 688.113 573.285 687.223 572.988L676.938 553.605Z" fill="#263238"/>
<path d="M762.678 499.213C762.678 499.213 762.777 499.213 762.876 499.114C763.074 499.015 763.271 498.916 763.469 498.719C763.964 498.323 764.755 497.829 765.843 497.136C767.919 495.851 770.886 493.972 775.04 492.488C777.116 491.796 779.391 491.203 781.962 491.005C784.533 490.906 787.203 491.302 789.874 492.291C792.544 493.28 795.115 494.862 797.488 496.939C798.675 497.928 799.862 499.114 800.851 500.301C801.938 501.488 802.828 502.872 803.62 504.257C805.301 507.125 806.488 510.19 807.378 513.157C808.169 516.124 808.861 519.19 809.454 521.959C810.641 527.595 811.333 532.738 811.432 537.089C811.531 541.44 811.037 545.001 810.641 547.374C810.443 548.561 810.245 549.55 810.147 550.143C810.048 550.44 810.048 550.638 810.048 550.835C810.048 551.033 810.048 551.033 810.048 551.132C810.048 551.132 810.048 551.033 810.147 550.934C810.245 550.736 810.245 550.539 810.344 550.242C810.542 549.649 810.74 548.66 810.938 547.473C811.432 545.099 811.927 541.539 811.927 537.188C811.927 532.837 811.234 527.595 810.048 521.959C809.454 519.091 808.762 516.223 807.971 513.157C807.081 510.091 805.894 507.026 804.213 504.158C803.422 502.674 802.433 501.29 801.345 500.103C800.257 498.916 799.071 497.73 797.884 496.741C795.51 494.664 792.84 493.082 790.071 492.093C787.302 491.104 784.533 490.708 781.962 490.807C779.391 491.005 777.017 491.598 774.941 492.39C770.787 493.972 767.82 495.851 765.744 497.235C764.755 497.928 763.964 498.521 763.469 498.916C763.271 499.114 763.074 499.213 762.876 499.411C762.678 499.114 762.678 499.213 762.678 499.213Z" fill="#455A64"/>
<path d="M783.94 537.98C783.94 537.98 783.742 538.079 783.445 538.178C783.149 538.277 782.654 538.475 782.061 538.771C780.775 539.266 778.896 539.958 776.622 540.848C771.776 542.628 764.854 545.298 756.25 548.562C747.547 551.825 737.262 555.583 725.593 559.836C713.924 564.088 701.068 568.736 687.321 573.384L687.025 573.483L686.926 573.285C684.75 569.131 682.476 564.78 680.201 560.429C679.014 558.154 677.828 555.979 676.74 553.803L676.641 553.506L676.839 553.309C702.848 536.793 725.989 522.058 742.8 511.477C751.206 506.236 757.931 501.983 762.579 499.016C764.854 497.533 766.733 496.445 767.919 495.654C768.513 495.258 769.007 494.962 769.304 494.764C769.6 494.566 769.798 494.467 769.798 494.467C769.798 494.467 769.6 494.566 769.304 494.764C769.007 494.962 768.513 495.258 767.919 495.654C766.634 496.445 764.854 497.632 762.579 499.115C757.931 502.082 751.206 506.433 742.899 511.774C726.186 522.454 702.947 537.288 677.037 553.803L677.135 553.407C678.223 555.484 679.41 557.759 680.597 560.033C682.871 564.483 685.146 568.835 687.321 572.889L686.926 572.692C700.672 568.044 713.627 563.396 725.197 559.242C736.867 554.99 747.251 551.232 755.854 548.067C764.458 544.903 771.479 542.331 776.325 540.551C778.699 539.661 780.578 538.969 781.863 538.574C782.457 538.376 782.951 538.178 783.347 538.079C783.742 538.079 783.94 537.98 783.94 537.98Z" fill="#455A64"/>
<path d="M777.133 368.99C778.505 366.025 784.325 356.513 785.057 353.253C785.788 349.992 786.337 337.442 785.057 334.379C786.515 329.429 785.605 328.65 785.057 326.872C784.233 324.303 791.262 313.285 789.799 311.112C787.513 307.752 781.49 312.108 784.599 301.145C781.856 299.761 776.735 308.113 773.899 307.125C771.43 306.235 773.899 311.112 768.288 313.105C765.91 314.192 775.77 315.098 755.194 316.095C746.31 317.59 743.504 320.58 741.633 322.075C739.763 323.57 737.59 325.39 736.218 326.872C734.938 328.354 731.804 330.547 732.748 330.547C729.934 335.032 728.914 335.805 729.006 339.362C729.097 342.919 732.286 345.546 735.304 347.127C738.322 348.609 741.797 348.708 745.09 348.411C754.51 347.621 763.93 343.767 770.332 336.258" fill="#263238"/>
<path d="M777.248 341.776L784.17 392.014C785.357 400.519 779.127 408.331 770.523 409.123C762.513 409.815 755.294 404.079 754.206 396.069C753.711 392.311 753.217 389.146 753.217 388.751C753.217 388.751 740.262 389.344 737.592 376.785C736.306 370.752 734.625 357.995 733.339 346.523C731.856 334.162 740.163 322.789 752.426 320.317L753.612 320.119C766.864 318.24 775.764 328.525 777.248 341.776Z" fill="#FFBE9D"/>
<path d="M753.5 388.652C753.5 388.652 761.536 387.663 768.787 380.74C768.787 380.74 766.729 390.531 754.088 391.915L753.5 388.652Z" fill="#EB996E"/>
<path d="M738.976 357.204C739.174 358.193 740.064 358.786 741.053 358.687C742.042 358.588 742.734 357.698 742.536 356.709C742.339 355.72 741.449 355.127 740.46 355.226C739.471 355.424 738.778 356.314 738.976 357.204Z" fill="#263238"/>
<path d="M737.295 352.16C737.592 352.358 738.68 351.072 740.657 350.677C742.536 350.281 744.218 350.974 744.316 350.677C744.415 350.578 744.119 350.182 743.426 349.886C742.734 349.589 741.646 349.292 740.361 349.589C739.174 349.787 738.185 350.479 737.789 351.072C737.295 351.666 737.097 352.061 737.295 352.16Z" fill="#263238"/>
<path d="M756.975 354.138C757.173 355.127 758.063 355.72 759.051 355.621C760.04 355.523 760.733 354.633 760.535 353.644C760.337 352.655 759.447 352.061 758.458 352.16C757.568 352.259 756.876 353.149 756.975 354.138Z" fill="#263238"/>
<path d="M756.381 348.798C756.678 348.996 757.766 347.71 759.744 347.314C761.623 346.919 763.304 347.611 763.403 347.314C763.502 347.216 763.205 346.82 762.513 346.523C761.82 346.227 760.733 345.93 759.447 346.227C758.26 346.523 757.37 347.117 756.876 347.71C756.282 348.205 756.184 348.699 756.381 348.798Z" fill="#263238"/>
<path d="M752.228 364.522C752.228 364.423 750.942 364.423 748.964 364.621C748.47 364.621 747.976 364.621 747.778 364.324C747.58 364.027 747.679 363.434 747.778 362.841C747.976 361.555 748.272 360.171 748.47 358.786C749.459 353.05 750.052 348.303 749.756 348.303C749.558 348.303 748.569 352.852 747.58 358.687C747.382 360.072 747.184 361.456 746.987 362.742C746.888 363.335 746.69 364.027 747.085 364.72C747.283 365.016 747.679 365.214 748.074 365.313C748.371 365.313 748.668 365.313 748.964 365.214C750.942 364.819 752.228 364.621 752.228 364.522Z" fill="#263238"/>
<path d="M758.161 364.72C757.865 364.72 758.26 366.895 756.777 368.675C755.294 370.554 753.019 370.752 753.019 371.049C753.019 371.148 753.612 371.345 754.502 371.148C755.392 370.95 756.678 370.455 757.667 369.269C758.557 368.181 758.854 366.796 758.755 365.906C758.656 365.115 758.26 364.621 758.161 364.72Z" fill="#263238"/>
<path d="M754.305 341.282C754.601 341.776 756.48 341.183 758.755 340.985C761.029 340.788 763.007 341.084 763.205 340.491C763.304 340.194 762.908 339.799 762.018 339.403C761.227 339.007 759.942 338.81 758.557 338.909C757.173 339.007 755.986 339.502 755.195 339.996C754.502 340.59 754.206 341.084 754.305 341.282Z" fill="#263238"/>
<path d="M736.899 346.424C737.295 346.82 738.581 346.029 740.163 345.732C741.745 345.337 743.13 345.436 743.426 344.941C743.525 344.644 743.229 344.249 742.536 343.952C741.844 343.655 740.855 343.557 739.767 343.754C738.68 344.051 737.789 344.644 737.295 345.139C736.801 345.732 736.702 346.227 736.899 346.424Z" fill="#263238"/>
<path d="M778.194 351.27C778.39 351.171 786.229 347.018 787.699 355.621C789.169 364.225 780.252 363.929 780.154 363.731C780.056 363.434 778.194 351.27 778.194 351.27Z" fill="#FFBE9D"/>
<path d="M782.212 359.973C782.212 359.973 782.408 360.072 782.604 360.171C782.898 360.269 783.29 360.269 783.682 359.973C784.564 359.478 785.054 357.896 784.858 356.314C784.76 355.523 784.466 354.83 784.074 354.237C783.682 353.644 783.192 353.248 782.8 353.248C782.31 353.248 782.016 353.545 782.016 353.841C781.918 354.138 782.016 354.237 782.016 354.336C782.016 354.336 781.82 354.237 781.82 353.841C781.82 353.644 781.918 353.446 782.114 353.248C782.31 353.05 782.604 352.951 782.898 352.852C783.584 352.754 784.27 353.347 784.662 353.94C785.152 354.534 785.446 355.424 785.544 356.314C785.74 358.094 785.152 359.874 783.976 360.368C783.388 360.665 782.898 360.566 782.604 360.368C782.31 360.171 782.212 359.973 782.212 359.973Z" fill="#EB996E"/>
<path d="M730.915 334.854C732.398 338.019 740.013 339.304 745.65 337.623C750.793 336.041 752.671 332.777 755.935 329.909C758.012 328.129 758.012 328.129 761.374 327.734C764.143 327.437 766.319 330.206 768.395 331.986C767.209 338.909 770.274 345.633 773.241 351.962C773.538 352.655 773.933 353.446 774.626 353.743C775.812 354.336 777.197 353.446 777.889 352.259C778.977 350.479 779.175 348.303 779.076 346.227C778.977 341.48 778.186 336.634 776.208 332.283C774.23 327.931 771.164 323.976 767.209 321.405C762.165 318.24 755.836 317.251 750.001 318.537C744.167 319.822 738.925 323.086 734.871 327.635C733.091 329.81 731.508 332.184 730.915 334.854Z" fill="#263238"/>
<path d="M748.797 355.819C748.699 355.819 748.797 355.028 748.405 353.841C748.111 352.556 747.229 350.776 745.367 349.391C743.603 348.007 740.663 347.216 737.822 348.303C736.45 348.798 735.078 349.787 734.098 351.072C733.118 352.358 732.53 354.039 732.53 355.819C732.53 357.599 733.118 359.281 734.098 360.566C735.078 361.852 736.352 362.841 737.822 363.335C740.663 364.423 743.603 363.632 745.367 362.247C747.229 360.863 748.111 359.083 748.405 357.797C748.699 356.512 748.699 355.819 748.797 355.819C748.797 355.819 748.797 356.017 748.797 356.314C748.797 356.709 748.797 357.204 748.601 357.896C748.307 359.182 747.523 361.16 745.563 362.643C743.701 364.126 740.565 365.115 737.43 363.929C735.862 363.434 734.49 362.346 733.412 360.962C732.334 359.577 731.746 357.698 731.746 355.819C731.746 353.94 732.334 352.061 733.412 350.677C734.49 349.193 735.862 348.205 737.43 347.71C740.565 346.622 743.701 347.512 745.563 348.996C747.523 350.479 748.307 352.457 748.601 353.743C748.699 354.435 748.797 354.929 748.797 355.325C748.797 355.622 748.797 355.819 748.797 355.819Z" fill="#263238"/>
<path d="M769.081 352.16C768.983 352.16 769.081 351.369 768.689 350.182C768.395 348.897 767.513 347.117 765.651 345.732C763.887 344.348 760.948 343.557 758.106 344.644C756.734 345.139 755.362 346.128 754.382 347.413C753.402 348.699 752.814 350.38 752.814 352.16C752.814 353.94 753.402 355.622 754.382 356.907C755.362 358.193 756.636 359.182 758.106 359.676C760.948 360.764 763.887 359.973 765.651 358.588C767.513 357.204 768.395 355.424 768.689 354.138C769.081 352.951 769.081 352.16 769.081 352.16C769.081 352.16 769.081 352.358 769.081 352.655C769.081 353.05 769.081 353.545 768.885 354.237C768.591 355.523 767.807 357.5 765.847 358.984C763.985 360.467 760.85 361.456 757.714 360.269C756.146 359.775 754.774 358.687 753.696 357.303C752.618 355.918 752.03 354.039 752.03 352.16C752.03 350.281 752.618 348.402 753.696 347.018C754.774 345.534 756.146 344.545 757.714 344.051C760.85 342.963 763.985 343.853 765.847 345.337C767.807 346.82 768.591 348.798 768.885 350.083C768.983 350.776 769.081 351.27 769.081 351.666C769.179 352.061 769.179 352.16 769.081 352.16Z" fill="#263238"/>
<path d="M752.324 352.457C752.226 352.655 751.149 352.16 749.875 352.556C748.601 352.951 748.013 353.94 747.817 353.841C747.719 353.841 747.817 353.446 748.111 353.05C748.405 352.655 748.993 352.061 749.777 351.864C750.561 351.666 751.345 351.765 751.737 351.962C752.226 352.16 752.422 352.457 752.324 352.457Z" fill="#263238"/>
<path d="M780.644 349.985C780.644 350.182 777.9 350.281 774.568 350.281C771.237 350.281 768.493 350.084 768.493 349.886C768.493 349.688 771.237 349.589 774.568 349.589C777.9 349.589 780.644 349.787 780.644 349.985Z" fill="#263238"/>
<path d="M780.739 321.99C780.739 321.99 780.641 321.028 780.053 319.681C779.465 318.335 778.093 316.604 776.133 315.353C774.076 314.199 771.92 313.911 770.45 314.007C768.882 314.103 768 314.488 768 314.488C768 314.488 768.196 314.488 768.686 314.391C769.078 314.295 769.666 314.199 770.45 314.199C771.92 314.103 774.076 314.488 776.035 315.642C777.995 316.796 779.269 318.527 779.955 319.874C780.249 320.547 780.543 321.124 780.641 321.509C780.739 321.797 780.739 321.99 780.739 321.99Z" fill="white"/>
<path d="M588.1 308.101V465.16L610 485.544H588.1H586H495.4V308.101H588.1Z" fill="#455A64"/>
<path d="M588.1 308.101C588.1 308.101 587.6 308.101 586.5 308.101C585.4 308.101 583.8 308.101 581.7 308.101C577.5 308.101 571.2 308.101 563.2 308.101C547.1 308.101 523.9 307.99 495.3 307.99H495.1V308.212C495.1 355.664 495.1 417.597 495 485.655V485.99H495.3C500.4 485.99 505.9 485.99 511.4 485.99C546.3 485.99 579.7 485.99 610 485.99H610.7L610.2 485.544C602.6 478.526 595.3 471.732 588.3 465.16L588.4 465.382C588.4 418.376 588.3 379.056 588.3 351.543C588.3 337.842 588.3 326.926 588.2 319.574C588.2 315.898 588.2 313.113 588.2 311.108C588.2 310.217 588.2 309.438 588.2 308.992C588.1 308.324 588.1 308.101 588.1 308.101C588.1 308.101 588.1 308.324 588.1 308.881C588.1 309.326 588.1 310.106 588.1 311.108C588.1 313.002 588.1 315.898 588.1 319.574C588.1 327.037 588.1 337.842 588 351.654C588 379.167 587.9 418.376 587.9 465.382V465.494L588 465.605C595 472.177 602.3 478.972 609.9 485.99L610.1 485.544C579.8 485.544 546.4 485.544 511.5 485.544C506 485.544 500.5 485.544 495.4 485.544L495.7 485.878C495.7 417.708 495.7 355.775 495.6 308.435L495.4 308.658C523.9 308.658 547.1 308.546 563.2 308.546C571.2 308.546 577.5 308.546 581.7 308.546C583.8 308.546 585.4 308.546 586.5 308.546C587.5 308.101 588.1 308.101 588.1 308.101Z" fill="#263238"/>
<path d="M512.7 315.898C512.7 317.012 513.5 318.015 514.6 318.015C515.6 318.015 516.5 317.123 516.5 315.898C516.5 314.784 515.7 313.782 514.6 313.782C513.5 313.782 512.7 314.673 512.7 315.898Z" fill="#F02A2A"/>
<path d="M505.9 315.898C505.9 317.012 506.7 318.015 507.8 318.015C508.8 318.015 509.7 317.123 509.7 315.898C509.7 314.784 508.9 313.782 507.8 313.782C506.7 313.782 505.9 314.673 505.9 315.898Z" fill="#1BB559"/>
<path d="M499.1 315.898C499.1 317.012 499.9 318.015 501 318.015C502 318.015 502.9 317.123 502.9 315.898C502.9 314.784 502.1 313.782 501 313.782C499.9 313.782 499.1 314.673 499.1 315.898Z" fill="#FAC02D"/>
<path d="M520.9 364.241C520.9 364.464 532.7 364.575 547.2 364.575C561.7 364.575 573.5 364.464 573.5 364.241C573.5 364.018 561.7 363.907 547.2 363.907C532.6 363.907 520.9 364.13 520.9 364.241Z" fill="#FF725E"/>
<path d="M509.9 378.499C509.9 378.722 524.2 378.833 541.9 378.833C559.6 378.833 573.9 378.722 573.9 378.499C573.9 378.276 559.6 378.165 541.9 378.165C524.2 378.165 509.9 378.276 509.9 378.499Z" fill="#1BB559"/>
<path d="M507.3 431.52C507.3 431.743 522.6 431.854 541.4 431.854C560.2 431.854 575.5 431.743 575.5 431.52C575.5 431.297 560.2 431.186 541.4 431.186C522.6 431.186 507.3 431.297 507.3 431.52Z" fill="#FF725E"/>
<path d="M568.5 385.739C568.5 385.962 570 386.073 571.7 386.073C573.5 386.073 574.9 385.962 574.9 385.739C574.9 385.516 573.4 385.405 571.7 385.405C569.9 385.405 568.5 385.516 568.5 385.739Z" fill="#FF725E"/>
<path d="M546.1 385.851C546.1 386.073 549.3 386.185 553.1 386.185C557 386.185 560.2 386.073 560.2 385.851C560.2 385.628 557 385.516 553.1 385.516C549.2 385.516 546.1 385.739 546.1 385.851Z" fill="#FF725E"/>
<path d="M531.8 385.851C531.8 386.073 534.5 386.185 537.8 386.185C541.1 386.185 543.8 386.073 543.8 385.851C543.8 385.628 541.1 385.516 537.8 385.516C534.5 385.516 531.8 385.739 531.8 385.851Z" fill="#FF725E"/>
<path d="M569.4 394.984C569.4 395.207 570.7 395.319 572.2 395.319C573.7 395.319 575 395.207 575 394.984C575 394.762 573.7 394.65 572.2 394.65C570.6 394.65 569.4 394.762 569.4 394.984Z" fill="#FF725E"/>
<path d="M569.1 404.453C569.1 404.675 570.4 404.787 572 404.787C573.6 404.787 574.9 404.675 574.9 404.453C574.9 404.23 573.6 404.118 572 404.118C570.4 404.118 569.1 404.23 569.1 404.453Z" fill="#FF725E"/>
<path d="M569.1 415.146C569.1 415.369 570.4 415.48 572 415.48C573.6 415.48 574.9 415.369 574.9 415.146C574.9 414.923 573.6 414.812 572 414.812C570.4 414.812 569.1 414.923 569.1 415.146Z" fill="#FF725E"/>
<path d="M516.1 414.589C516.1 414.812 525.8 414.923 537.8 414.923C549.8 414.923 559.5 414.812 559.5 414.589C559.5 414.366 549.8 414.255 537.8 414.255C525.8 414.255 516.1 414.478 516.1 414.589Z" fill="#FAC02D"/>
<path d="M519.9 404.453C519.9 404.675 529.2 404.787 540.6 404.787C552 404.787 561.3 404.675 561.3 404.453C561.3 404.23 552 404.118 540.6 404.118C529.2 404.118 519.9 404.23 519.9 404.453Z" fill="#FF725E"/>
<path d="M564.9 445.667C564.9 445.889 566.2 446.001 567.8 446.001C569.4 446.001 570.7 445.889 570.7 445.667C570.7 445.444 569.4 445.332 567.8 445.332C566.2 445.332 564.9 445.444 564.9 445.667Z" fill="#FAC02D"/>
<path d="M564.9 456.36C564.9 456.583 566.2 456.694 567.8 456.694C569.4 456.694 570.7 456.583 570.7 456.36C570.7 456.137 569.4 456.026 567.8 456.026C566.2 456.026 564.9 456.249 564.9 456.36Z" fill="#FF725E"/>
<path d="M511.8 455.914C511.8 456.137 521.5 456.249 533.5 456.249C545.5 456.249 555.2 456.137 555.2 455.914C555.2 455.692 545.5 455.58 533.5 455.58C521.6 455.58 511.8 455.692 511.8 455.914Z" fill="#FF725E"/>
<path d="M515.7 445.667C515.7 445.889 525 446.001 536.4 446.001C547.8 446.001 557.1 445.889 557.1 445.667C557.1 445.444 547.8 445.332 536.4 445.332C524.9 445.332 515.7 445.444 515.7 445.667Z" fill="#FF725E"/>
<path d="M504.5 394.428C504.5 394.65 517.1 394.762 532.7 394.762C548.3 394.762 560.9 394.65 560.9 394.428C560.9 394.205 548.3 394.093 532.7 394.093C517.1 394.093 504.5 394.316 504.5 394.428Z" fill="#FAC02D"/>
<path d="M496.2 324.03C496.2 324.252 516.6 324.364 541.7 324.364C566.8 324.364 587.2 324.252 587.2 324.03C587.2 323.807 566.8 323.695 541.7 323.695C516.6 323.695 496.2 323.918 496.2 324.03Z" fill="#263238"/>
<path d="M554.2 355.664C554.2 355.887 558.5 355.998 563.8 355.998C569.1 355.998 573.4 355.887 573.4 355.664C573.4 355.441 569.1 355.33 563.8 355.33C558.5 355.33 554.2 355.553 554.2 355.664Z" fill="#FF725E"/>
<path d="M565.1 336.282C565.1 336.505 567.1 336.617 569.6 336.617C572.1 336.617 574.1 336.505 574.1 336.282C574.1 336.06 572.1 335.948 569.6 335.948C567.1 335.948 565.1 336.171 565.1 336.282Z" fill="#FF725E"/>
</svg>
